<svg class="svg-icon" style="width: 1em;height: 1em;vertical-align: middle;fill: currentColor;overflow: hidden;" viewBox="0 0 1024 1024" version="1.1" xmlns="http://www.w3.org/2000/svg"><path d="M768 1024H341.333333a42.666667 42.666667 0 0 1 0-85.333333h426.666667a42.666667 42.666667 0 0 0 42.666667-42.666667v-177.066667a69.546667 69.546667 0 0 0-37.973334-55.893333 696.32 696.32 0 0 0-521.386666 0A69.546667 69.546667 0 0 0 213.333333 718.933333V981.333333a42.666667 42.666667 0 0 1-85.333333 0v-262.4a153.173333 153.173333 0 0 1 91.306667-135.253333 781.226667 781.226667 0 0 1 585.386666 0A153.173333 153.173333 0 0 1 896 718.933333V896a128 128 0 0 1-128 128zM725.333333 213.333333a213.333333 213.333333 0 1 0-213.333333 213.333334 213.333333 213.333333 0 0 0 213.333333-213.333334z m-85.333333 0a128 128 0 1 1-128-128 128 128 0 0 1 128 128z" fill="#3E2AD1" /></svg>