<svg class="svg-icon" style="width: 1em;height: 1em;vertical-align: middle;fill: currentColor;overflow: hidden;" viewBox="0 0 1024 1024" version="1.1" xmlns="http://www.w3.org/2000/svg"><path d="M1024 512c0 282.7776-229.2224 512-512 512S0 794.7776 0 512 229.2224 0 512 0s512 229.2224 512 512z" fill="#2962FF" /><path d="M486.4 537.6v166.4a38.4 38.4 0 0 1-38.4 38.4H320a38.4 38.4 0 0 1-38.4-38.4V576a38.4 38.4 0 0 1 38.4-38.4h166.4z m217.6 0a38.4 38.4 0 0 1 38.4 38.4v128a38.4 38.4 0 0 1-38.4 38.4H576a38.4 38.4 0 0 1-38.4-38.4V537.6h166.4zM448 281.6a38.4 38.4 0 0 1 38.4 38.4v166.4H320a38.4 38.4 0 0 1-38.4-38.4V320a38.4 38.4 0 0 1 38.4-38.4h128z m256 0a38.4 38.4 0 0 1 38.4 38.4v128a38.4 38.4 0 0 1-38.4 38.4H537.6V320a38.4 38.4 0 0 1 38.4-38.4h128z" fill="#FFFFFF" /></svg>