<?xml version="1.0" encoding="UTF-8"?>
<svg version="1.1" xmlns="http://www.w3.org/2000/svg" width="512" height="512">
<path d="M0 0 C0.98548325 -0.00428513 1.97096649 -0.00857025 2.98631287 -0.01298523 C5.071678 -0.01872136 7.15706314 -0.01923408 9.24243164 -0.01489258 C12.39830748 -0.01175384 15.55322578 -0.03512706 18.70898438 -0.06054688 C36.24478333 -0.11679483 50.99214459 1.48673797 64.24609375 14.11328125 C69.38116764 19.5259267 73.13156447 25.01430783 74.87109375 32.30078125 C75.55037503 32.29926237 76.2296563 32.29774349 76.92952186 32.29617858 C117.20440853 32.20663329 157.47928234 32.13801835 197.75424843 32.09651993 C202.59194378 32.09151721 207.42963893 32.08633991 212.26733398 32.08105469 C213.23041714 32.08000545 214.1935003 32.0789562 215.18576779 32.07787517 C230.77239651 32.06047799 246.35896611 32.02894408 261.94555978 31.99217007 C277.94319476 31.95474153 293.94079882 31.93254135 309.93847579 31.92442727 C319.80700338 31.91894347 329.67536387 31.90163392 339.54384001 31.86911538 C346.31438556 31.84794389 353.08484493 31.84158717 359.85542116 31.84677574 C363.75958718 31.84933343 367.66346153 31.84545966 371.56757545 31.82395935 C375.14764002 31.80438835 378.72721882 31.80357874 382.30730649 31.81718567 C384.20399519 31.81965641 386.1006788 31.80249913 387.99728328 31.78445601 C398.969617 31.86063986 407.89879714 34.32998127 415.92578125 42.01171875 C423.47125766 50.89053235 424.39101938 60.07745963 423.87109375 71.30078125 C423.31784512 76.32041883 422.50315232 81.28723926 421.65551758 86.26391602 C421.41647011 87.71418383 421.17830661 89.16459757 420.94094849 90.61514282 C420.29978409 94.51552201 419.64535288 98.41355935 418.98752427 102.31115842 C418.4369217 105.58065829 417.89282242 108.85122749 417.34862155 112.12179798 C416.06361341 119.8434997 414.7676253 127.5633023 413.46459961 135.28198242 C412.12587241 143.21329238 410.80556423 151.14751247 409.49431783 159.08340794 C408.36257885 165.92890082 407.21946487 172.77242867 406.0673601 179.61452335 C405.3817152 183.68704499 404.7002053 187.76014185 404.02964211 191.83517647 C403.39837961 195.66823096 402.75280336 199.49861535 402.09666824 203.32748795 C401.85989965 204.72292365 401.627947 206.11918761 401.40150642 207.51633644 C398.52803218 225.19834167 392.32422113 238.37229821 377.87109375 249.30078125 C367.98506592 255.1111143 357.71505901 256.60792473 346.41018677 256.56147766 C345.40555543 256.56530321 344.40092409 256.56912876 343.36584938 256.57307023 C340.02525793 256.58332578 336.68484076 256.57942228 333.34423828 256.57543945 C330.93861737 256.57979004 328.53299785 256.58497434 326.12738037 256.59092712 C320.28664527 256.6029049 314.44596372 256.60547307 308.60521783 256.60312686 C303.85441 256.60133887 299.10361608 256.60310361 294.35280991 256.6073513 C293.33593097 256.60824409 293.33593097 256.60824409 292.29850902 256.60915491 C290.92101114 256.61036674 289.54351325 256.61158088 288.16601537 256.61279728 C275.26755115 256.62365666 262.36911312 256.62151791 249.47064744 256.61541244 C237.69087921 256.61024447 225.91119371 256.62149838 214.13144185 256.64051066 C202.01280652 256.65991875 189.89421027 256.66813987 177.77555931 256.6643874 C170.98114477 256.66247989 164.18680063 256.66491888 157.39239883 256.67910194 C151.00161239 256.69170189 144.6109912 256.68971551 138.22020721 256.67669106 C135.88058033 256.6743305 133.54094173 256.67704121 131.20132828 256.68531418 C113.06472713 256.74480047 96.62281371 256.06315647 82.4921875 243.05078125 C73.69511617 233.55418377 69.71809873 222.96005462 67.92602539 210.31835938 C67.76464868 209.24844002 67.60327196 208.17852066 67.43700504 207.0761795 C66.90066924 203.48633297 66.38443519 199.89398436 65.87109375 196.30078125 C65.58923544 194.35666982 65.30737425 192.41255879 65.02533942 190.46847296 C63.87888232 182.55161369 62.76212814 174.63066464 61.65075493 166.70881653 C60.97693162 161.90672317 60.29812597 157.10534142 59.61842346 152.30407715 C57.68937951 138.67412695 55.7628841 125.04382919 53.84985352 111.41162109 C52.78630231 103.83307399 51.71672107 96.25540382 50.64036995 88.67866373 C50.07406107 84.69040728 49.51083019 80.7017715 48.95513725 76.71202087 C48.43455455 72.97443924 47.90607963 69.23805745 47.37167358 65.50242805 C47.08630196 63.4929724 46.80929629 61.48233412 46.53260803 59.47166443 C45.22588438 47.2570994 45.22588438 47.2570994 38.87109375 37.30078125 C35.32143337 34.93434099 32.87969231 34.17872492 28.71020508 34.15893555 C27.87536087 34.15190109 27.04051666 34.14486664 26.18037415 34.13761902 C24.83038582 34.1313726 24.83038582 34.1313726 23.453125 34.125 C21.53970265 34.10179264 19.62629117 34.07767494 17.71289062 34.05273438 C14.70231956 34.0177021 11.69214606 33.9883195 8.68139648 33.97485352 C5.77148375 33.9592976 2.8627286 33.91903154 -0.046875 33.875 C-0.93674606 33.87690842 -1.82661713 33.87881683 -2.74345398 33.88078308 C-8.6475438 33.76631871 -13.20558962 32.66799155 -18.12890625 29.30078125 C-22.19679938 24.81566832 -23.3883236 20.24662684 -23.12890625 14.30078125 C-21.37481531 8.45381144 -18.5308412 4.17329719 -13.09790039 1.18286133 C-8.73677403 -0.11281744 -4.52686373 -0.0043764 0 0 Z " fill="#007BBE" transform="translate(54.12890625,78.69921875)"/>
<path d="M0 0 C102.96 0 205.92 0 312 0 C311.34 3.96 310.68 7.92 310 12 C309.65847773 14.05081177 309.31702449 16.10163505 308.97570801 18.15248108 C308.79915176 19.2132637 308.62259552 20.27404633 308.44068909 21.36697388 C308.25465622 22.48474213 308.06862335 23.60251038 307.87695312 24.75415039 C305.82706434 37.06979139 303.77636557 49.38529735 301.72518158 61.70072269 C300.48740857 69.13252119 299.24994342 76.56437071 298.01318359 83.99633789 C296.9282457 90.51596698 295.84272768 97.03549917 294.75652838 103.55491823 C294.18374761 106.99289795 293.61124515 110.43092345 293.03944397 113.86906624 C292.40154051 117.70460824 291.76234231 121.53993389 291.12304688 125.37524414 C290.93701401 126.49503662 290.75098114 127.6148291 290.55931091 128.76855469 C290.04560799 131.84677253 289.52525494 134.92373361 289 138 C288.73764305 139.54608853 288.73764305 139.54608853 288.46998596 141.12341118 C288.29817307 142.10748514 288.12636017 143.0915591 287.94934082 144.10545349 C287.79810005 144.97839271 287.64685928 145.85133192 287.49103546 146.75072384 C286.31105937 152.15581636 283.37840361 154.85653074 279 158 C276.71915267 159.14042366 275.46277091 159.12812349 272.92879105 159.13422108 C271.64299522 159.14090784 271.64299522 159.14090784 270.33122373 159.14772969 C269.38396885 159.14754533 268.43671397 159.14736097 267.46075439 159.14717102 C265.95771039 159.15268605 265.95771039 159.15268605 264.42430186 159.1583125 C261.04490709 159.16938254 257.66554303 159.17319879 254.28613281 159.17700195 C251.87195741 159.18326407 249.45778298 159.18991064 247.04360962 159.19691467 C239.78295299 159.21616676 232.52229887 159.22674655 225.26162446 159.23564246 C221.8434497 159.24002422 218.42527649 159.24539134 215.00710297 159.25063133 C203.64585822 159.2676448 192.28461445 159.28213915 180.92335892 159.28938007 C177.97429656 159.29129001 175.02523421 159.29321033 172.07617188 159.29516602 C171.34318551 159.29564976 170.61019914 159.2961335 169.85500106 159.2966319 C157.98012427 159.30493284 146.1053482 159.33027026 134.23051539 159.36274669 C122.04210731 159.39580925 109.85375043 159.41382812 97.66529727 159.41702431 C90.82061695 159.41919022 83.97608348 159.42795039 77.13144684 159.45348549 C70.69318456 159.47744885 64.25511496 159.48102318 57.81681442 159.47072411 C55.45208991 159.4702272 53.08735264 159.47659292 50.72266769 159.49028015 C47.49718544 159.50790703 44.2726622 159.50093763 41.04718018 159.48774719 C40.10884818 159.49871644 39.17051619 159.50968568 38.2037499 159.52098733 C32.63930679 159.46595467 29.38445438 158.76385036 25 155 C19.06537744 147.08716992 18.95339105 137.55176827 19 128 C20.04029987 127.99780016 20.04029987 127.99780016 21.10161591 127.99555588 C37.99524301 127.95846607 54.88863729 127.89942268 71.78209686 127.81609726 C79.9517397 127.77632785 88.1212865 127.74392475 96.29101562 127.72900391 C103.413724 127.71597646 110.53622088 127.68898407 117.65881014 127.64538693 C121.42844041 127.62279646 125.19781007 127.60708785 128.96751404 127.60811615 C132.52009829 127.60886421 136.07210698 127.59085587 139.62454224 127.55883217 C141.54095467 127.54633198 143.45746386 127.55338585 145.37390137 127.56114197 C152.38481198 127.47671403 157.05408308 126.80850509 163 123 C166.54711702 119.36420505 167.28578227 116.43370215 167.5 111.5 C167.30691801 106.59971232 166.41113589 103.68771447 163 100 C159.20433588 97.26656862 156.58164137 96.62154159 151.93193054 96.60127258 C150.71341904 96.58873444 149.49490753 96.57619629 148.23947144 96.5632782 C146.8975217 96.56445213 145.5555722 96.56591124 144.21362305 96.56762695 C142.7941757 96.55860651 141.37473615 96.5482786 139.95530701 96.53674316 C136.10859771 96.50917989 132.26203625 96.4998896 128.415241 96.49388909 C124.39263797 96.48450365 120.37014529 96.45830012 116.34761047 96.43388367 C108.73336591 96.39021964 101.11914276 96.3616721 93.50481111 96.33856028 C84.83490546 96.31150808 76.16511082 96.26759659 67.49528444 96.22227156 C49.66358157 96.12942669 31.83184934 96.05774524 14 96 C13.67880398 94.57575639 13.35890806 93.15121954 13.03955078 91.7265625 C12.8612674 90.93330566 12.68298401 90.14004883 12.4992981 89.32275391 C11.83448371 86.23001188 11.33144563 83.12991292 10.875 80 C10.70742187 78.88625 10.53984375 77.7725 10.3671875 76.625 C10.07925124 73.78239518 9.96176761 71.11935884 9.97705078 68.2734375 C9.98202072 67.06953369 9.98202072 67.06953369 9.98709106 65.84130859 C9.99135101 65.23367676 9.99561096 64.62604492 10 64 C11.37548099 63.99780016 11.37548099 63.99780016 12.77874947 63.99555588 C35.08766904 63.95850959 57.39643643 63.89952375 79.70523262 63.81609726 C90.49359513 63.77628232 101.28188444 63.74390228 112.0703125 63.72900391 C121.47314886 63.71600014 130.87582431 63.68906804 140.27857006 63.64538693 C145.25761073 63.62274349 150.23645273 63.60709105 155.21554947 63.60811615 C159.90238262 63.60886106 164.58877611 63.59097845 169.27549553 63.55883217 C170.9951661 63.55031601 172.71488588 63.54859488 174.43456841 63.55419731 C176.7845397 63.56083314 179.1331104 63.54292853 181.48294067 63.51898193 C183.45465587 63.51345118 183.45465587 63.51345118 185.46620369 63.50780869 C190.79033343 62.74272799 193.8282964 60.29504082 197.375 56.375 C199.57907893 51.79729761 199.7971639 47.99447589 199 43 C196.63038479 38.07849148 193.72214837 35.64663191 189 33 C186.29243563 32.62113395 183.99775088 32.4551047 181.29985046 32.48774719 C180.54405585 32.48095151 179.78826123 32.47415582 179.00956374 32.4671542 C176.48744036 32.44925484 173.96624552 32.45964932 171.4440918 32.4699707 C169.63203692 32.46287094 167.81998822 32.45400667 166.00794983 32.44351196 C161.09509729 32.41991875 156.18251043 32.42063125 151.26961493 32.42542672 C146.13174344 32.42601997 140.99397845 32.40333285 135.8561554 32.38285828 C126.12877444 32.3474517 116.40146821 32.33143035 106.67403013 32.3230831 C92.37644294 32.31011237 78.07891766 32.27190349 63.7813921 32.22898388 C62.73475429 32.22584519 61.68811648 32.22270651 60.60976237 32.21947271 C58.5238848 32.21319347 56.43800741 32.20684993 54.35213023 32.20044011 C48.2274204 32.18233012 42.10274754 32.17125693 35.9780134 32.16614306 C32.17907289 32.16232372 28.38014589 32.15471626 24.581213 32.1463356 C22.81265468 32.14336411 21.04409248 32.14214199 19.27553177 32.14274788 C16.87206581 32.14341002 14.46868595 32.13810009 12.06523132 32.13130188 C11.00183793 32.13392744 11.00183793 32.13392744 9.91696185 32.13660604 C5.1140078 32.1140078 5.1140078 32.1140078 4 31 C3.62961642 28.9688157 3.31626165 26.92717551 3.02734375 24.8828125 C2.85009766 23.63628906 2.67285156 22.38976562 2.49023438 21.10546875 C2.39959717 20.45239746 2.30895996 19.79932617 2.21557617 19.12646484 C1.93953219 17.1396268 1.6563155 15.15378964 1.37304688 13.16796875 C0 3.42084478 0 3.42084478 0 0 Z " fill="#4EC2F6" transform="translate(134,143)"/>
<path d="M0 0 C8.57786983 7.8680813 14.71014498 18.42420553 15.3359375 30.234375 C15.60041635 43.46558324 13.30206982 53.37496661 5 64 C4.52175781 64.61617188 4.04351562 65.23234375 3.55078125 65.8671875 C-2.13241035 72.30909233 -11.57678253 77.23405248 -20 79 C-34.79259079 79.90234804 -46.46406806 78.61638279 -58.52734375 69.19140625 C-67.46962897 61.266253 -73.29665817 50.31927921 -74.203125 38.30859375 C-74.43644737 24.01759846 -70.59822176 12.80110477 -60.875 2.25 C-43.98287739 -13.81742302 -18.25317043 -14.03368754 0 0 Z " fill="#007BBE" transform="translate(415,351)"/>
<path d="M0 0 C1.3303125 0.86625 1.3303125 0.86625 2.6875 1.75 C11.82709009 10.64257414 17.05967515 22.25633772 17.3125 34.9375 C17.32678507 47.94484968 13.04628489 58.51423788 4.12109375 67.99609375 C-6.04819426 77.54906128 -18.05017103 80.63994038 -31.703125 80.30859375 C-43.70716957 79.67137464 -53.6953949 73.8469117 -61.8125 65.1875 C-70.94416562 54.05289829 -72.95335362 42.06196596 -72 28 C-69.99585706 16.47617811 -63.67397512 6.2790879 -54.3125 -0.625 C-37.08970942 -12.22664134 -17.01009198 -11.74956353 0 0 Z " fill="#007BBE" transform="translate(199,350)"/>
<path d="M0 0 C4.20475482 1.6997945 6.20472472 3.8425204 8 8 C8.53751218 12.22330997 8.28625223 14.42749554 6.375 18.25 C3.01807126 22.13697012 0.06983519 23.69814904 -5 24.4375 C-9.8547582 23.72951443 -12.82247704 21.45227831 -15.875 17.6875 C-17.35117243 14.16108808 -17.46618895 11.79611 -17 8 C-12.70377848 0.14828481 -8.43392647 -0.86363407 0 0 Z " fill="#DFE2E4" transform="translate(176,374)"/>
<path d="M0 0 C3.49996383 2.04164557 5.80555258 4.09089936 7 8 C7.86709334 14.61158673 7.86709334 14.61158673 5.7265625 18.0390625 C3.65872732 20.49020372 1.88764718 22.55617641 -1 24 C-7.10465114 24.50872093 -10.11952826 24.06705978 -15 20 C-17.82792793 15.7581081 -17.78122286 11.98126257 -17 7 C-13.10253602 -0.24435684 -7.57640402 -0.87098818 0 0 Z " fill="#E0E3E5" transform="translate(391,374)"/>
</svg>
